<?xml version="1.0" standalone="no"?>
<!DOCTYPE svg PUBLIC "-//W3C//DTD SVG 20010904//EN"
 "http://www.w3.org/TR/2001/REC-SVG-20010904/DTD/svg10.dtd">
<svg version="1.0" xmlns="http://www.w3.org/2000/svg"
 width="960.000000pt" height="960.000000pt" viewBox="0 0 960.000000 960.000000"
 preserveAspectRatio="xMidYMid meet">

<g transform="translate(0.000000,960.000000) scale(0.100000,-0.100000)"
fill="#000000" stroke="none">
<path d="M1232 6119 c-256 -43 -495 -223 -617 -464 -66 -132 -87 -222 -88
-380 -1 -149 19 -238 78 -364 124 -262 394 -458 665 -486 80 -8 1171 -13 1269
-6 75 6 86 9 107 34 42 49 24 140 -33 166 -16 8 -221 11 -649 11 -702 0 -717
1 -859 70 -226 110 -365 328 -365 575 0 101 21 189 67 285 28 58 55 94 122
160 93 92 143 123 266 167 l80 28 655 3 c453 2 664 6 683 14 68 27 76 130 13
180 -19 16 -70 17 -681 17 -363 -1 -684 -5 -713 -10z"/>
<path d="M3094 6096 c-38 -38 -45 -85 -19 -124 9 -12 159 -146 333 -299 174
-152 348 -304 385 -337 l69 -60 -44 -41 c-23 -22 -61 -56 -84 -75 -205 -175
-637 -555 -653 -576 -53 -67 0 -164 89 -164 21 0 49 17 102 63 87 73 814 706
870 757 l40 35 -134 115 c-73 63 -155 136 -183 161 -27 25 -138 122 -245 215
-443 385 -417 364 -456 364 -28 0 -44 -8 -70 -34z"/>
<path d="M4803 6098 c-21 -18 -94 -82 -163 -143 -69 -60 -155 -135 -190 -166
-36 -31 -110 -96 -165 -144 -55 -48 -117 -101 -137 -118 -21 -17 -38 -34 -38
-38 0 -8 148 -139 158 -139 4 0 91 73 193 163 231 201 279 243 404 352 107 93
124 114 125 158 1 97 -110 141 -187 75z"/>
<path d="M5370 6110 c-16 -16 -20 -33 -20 -85 0 -89 16 -105 108 -105 97 0
107 9 107 105 0 96 -10 105 -107 105 -55 0 -72 -4 -88 -20z"/>
<path d="M6298 6111 c-210 -68 -338 -242 -338 -461 0 -208 111 -371 310 -455
41 -18 82 -20 515 -25 467 -5 470 -5 517 -28 204 -100 205 -376 3 -485 -39
-22 -48 -22 -666 -27 -598 -5 -628 -6 -648 -24 -25 -23 -41 -73 -34 -110 6
-31 56 -76 86 -77 114 -6 1232 5 1265 12 104 23 231 113 290 206 95 149 98
369 7 513 -64 101 -161 175 -273 210 -60 19 -93 20 -491 20 -484 0 -496 1
-575 71 -68 60 -90 108 -90 199 -1 64 3 82 26 121 15 26 44 61 64 79 74 64 74
64 460 70 381 5 370 4 401 63 21 41 10 90 -28 121 l-31 26 -356 -1 c-317 0
-363 -2 -414 -18z"/>
<path d="M7655 6108 c-50 -44 -49 -127 1 -167 25 -20 40 -21 240 -21 l214 0 0
-719 0 -719 30 -30 c16 -16 40 -32 53 -34 37 -7 88 13 110 44 20 27 21 41 22
848 l1 820 -323 0 c-320 0 -322 0 -348 -22z"/>
<path d="M8410 5315 c0 -594 3 -821 12 -839 38 -84 164 -74 195 15 9 25 12
218 12 732 l1 697 211 0 211 0 34 34 c26 26 34 42 34 71 0 29 -8 45 -34 71
l-34 34 -321 0 -321 0 0 -815z"/>
<path d="M8875 5794 c-69 -36 -95 -79 -95 -157 0 -60 23 -104 73 -141 22 -16
43 -21 95 -21 58 0 72 4 104 28 67 51 85 141 45 217 -41 77 -148 113 -222 74z
m132 -33 c137 -63 75 -273 -76 -258 -97 10 -153 127 -99 207 24 37 79 70 113
70 11 0 39 -9 62 -19z"/>
<path d="M8876 5722 c-3 -3 -6 -43 -6 -89 0 -75 2 -84 18 -81 12 2 18 14 20
40 4 45 22 42 53 -8 12 -20 29 -34 40 -34 24 0 24 8 -1 40 -24 30 -25 46 -5
54 19 7 20 50 1 65 -15 13 -111 23 -120 13z m92 -51 c-2 -9 -15 -17 -31 -19
-21 -3 -27 1 -27 16 0 26 6 30 36 24 16 -3 24 -10 22 -21z"/>
<path d="M5388 5671 l-33 -29 0 -581 0 -581 31 -31 c53 -53 136 -37 171 32 10
18 13 158 13 577 0 471 -2 557 -15 582 -34 67 -111 81 -167 31z"/>
<path d="M1418 5351 c-28 -25 -33 -36 -33 -75 0 -36 6 -51 29 -75 l30 -31 580
0 c535 0 583 2 602 18 62 50 56 150 -11 180 -19 9 -175 12 -595 12 l-570 0
-32 -29z"/>
<path d="M4187 5134 c-43 -36 -77 -70 -75 -74 7 -19 706 -623 735 -636 32 -14
47 -12 91 9 50 24 67 105 33 149 -19 24 -685 610 -700 616 -4 1 -42 -27 -84
-64z"/>
<path d="M531 4121 c-7 -13 -6 -24 4 -37 13 -19 109 -19 4284 -19 4071 0 4271
1 4288 18 14 13 15 21 7 35 -11 16 -245 17 -4292 20 -4168 2 -4282 2 -4291
-17z"/>
<path d="M530 3938 c0 -5 30 -55 67 -111 l67 -102 0 -82 1 -83 42 0 42 0 -6
68 c-6 77 -4 84 82 216 30 46 55 88 55 93 0 5 -19 9 -41 8 -41 0 -42 -1 -83
-72 -22 -40 -44 -71 -48 -70 -4 1 -27 33 -50 72 -42 68 -44 70 -86 71 -23 0
-42 -3 -42 -8z"/>
<path d="M4240 3903 c0 -75 8 -93 40 -93 23 0 29 5 34 31 3 17 6 49 6 70 0 39
0 39 -40 39 l-40 0 0 -47z"/>
<path d="M6935 3942 c-3 -3 -5 -18 -5 -34 0 -25 3 -28 35 -28 33 0 35 2 35 34
0 32 -2 35 -30 34 -16 -1 -32 -3 -35 -6z"/>
<path d="M4648 3922 c-19 -12 -28 -25 -28 -43 0 -18 -6 -28 -20 -32 -13 -3
-20 -14 -20 -30 0 -16 7 -26 20 -30 18 -5 20 -14 20 -100 0 -113 11 -130 81
-125 40 3 44 6 47 31 3 23 0 27 -22 27 -31 0 -38 22 -34 105 3 57 4 60 31 63
24 3 28 7 25 30 -2 21 -9 28 -31 30 -25 3 -28 7 -27 35 4 64 2 66 -42 39z"/>
<path d="M7883 3920 c-23 -14 -33 -27 -33 -44 0 -15 -7 -27 -19 -31 -11 -3
-18 -15 -18 -29 0 -15 7 -26 18 -29 17 -5 19 -16 19 -94 0 -114 11 -133 81
-133 48 0 49 1 49 30 0 25 -4 30 -25 30 -26 0 -27 10 -25 158 0 4 10 7 23 7
18 0 22 6 22 30 0 25 -4 30 -22 29 -21 -1 -23 4 -23 48 0 26 -3 48 -7 48 -5 0
-23 -9 -40 -20z"/>
<path d="M1163 3844 c-47 -23 -77 -77 -76 -134 1 -92 56 -150 142 -150 117 0
184 114 129 219 -38 74 -121 101 -195 65z m117 -70 c22 -22 20 -107 -4 -133
-55 -61 -135 16 -106 103 17 53 71 67 110 30z"/>
<path d="M1670 3735 c0 -120 1 -127 25 -150 31 -32 91 -34 128 -5 25 20 25 20
30 0 4 -15 14 -20 36 -20 l31 0 0 150 0 150 -34 0 -34 0 -4 -106 c-3 -114 -13
-134 -65 -134 -34 0 -43 29 -43 139 l0 101 -35 0 -35 0 0 -125z"/>
<path d="M2670 3842 c-82 -41 -95 -190 -21 -256 31 -28 115 -34 157 -11 32 17
68 71 58 87 -12 18 -66 8 -86 -17 -42 -53 -98 -16 -98 65 0 81 47 114 94 67
18 -18 32 -23 55 -19 35 5 38 17 15 50 -35 51 -111 66 -174 34z"/>
<path d="M3195 3846 c-31 -14 -60 -51 -50 -65 7 -12 65 -20 65 -9 0 19 49 32
75 20 44 -20 30 -39 -45 -57 -96 -24 -130 -68 -98 -128 6 -12 18 -27 27 -34
23 -18 93 -16 119 3 22 15 24 15 36 -1 16 -22 73 -17 66 5 -2 8 -6 58 -7 110
-2 52 -6 105 -9 118 -10 45 -114 67 -179 38z m115 -170 c0 -43 -57 -79 -86
-55 -25 21 -13 53 26 66 51 17 60 16 60 -11z"/>
<path d="M3793 3840 c-27 -16 -33 -17 -33 -5 0 10 -11 15 -34 15 l-35 0 -3
-145 -3 -145 37 0 36 0 4 99 c2 80 7 103 22 120 23 26 48 27 69 3 14 -15 17
-40 17 -120 l0 -102 40 0 40 0 0 98 c0 123 -12 167 -50 187 -39 20 -69 19
-107 -5z"/>
<path d="M5502 3838 c-19 -19 -22 -20 -22 -5 0 13 -9 17 -35 17 l-35 0 0 -146
0 -145 38 3 c27 2 36 7 34 18 -6 25 9 175 18 191 5 8 24 14 41 14 27 0 34 5
42 29 7 21 6 30 -4 37 -24 15 -54 10 -77 -13z"/>
<path d="M5915 3850 c-98 -40 -109 -227 -15 -275 63 -32 169 -7 185 45 8 26 8
26 -32 33 -26 5 -35 2 -43 -13 -16 -29 -65 -27 -86 5 -8 13 -13 29 -9 35 3 6
44 10 96 10 l89 0 0 28 c0 15 -9 45 -19 68 -27 60 -104 90 -166 64z m87 -67
c10 -9 18 -25 18 -35 0 -17 -7 -19 -52 -16 -58 3 -69 17 -39 47 25 25 48 27
73 4z"/>
<path d="M6435 3851 c-54 -22 -75 -92 -40 -131 10 -11 49 -30 87 -41 51 -16
68 -25 68 -39 0 -20 -38 -34 -67 -24 -10 4 -25 15 -33 26 -12 14 -23 17 -48
12 -34 -7 -38 -14 -22 -45 16 -29 64 -49 120 -49 84 0 130 34 130 98 0 39 -28
62 -108 88 -74 24 -89 47 -34 52 21 2 41 -3 51 -12 12 -11 27 -14 49 -10 36 7
36 8 21 36 -21 39 -119 61 -174 39z"/>
<path d="M7354 3850 c-36 -14 -66 -61 -59 -90 11 -41 35 -59 107 -81 73 -22
87 -42 42 -59 -36 -14 -42 -13 -68 15 -19 20 -29 24 -55 19 -33 -7 -37 -14
-21 -45 16 -29 64 -49 120 -49 85 0 130 36 130 105 0 29 -39 61 -94 76 -67 18
-86 28 -86 44 0 21 68 20 91 -1 12 -11 27 -14 48 -9 35 7 35 8 20 37 -21 39
-119 61 -175 38z"/>
<path d="M6930 3705 l0 -145 35 0 35 0 0 145 0 145 -35 0 -35 0 0 -145z"/>
<path d="M8260 3596 c0 -35 1 -36 41 -36 39 0 40 1 37 33 -3 29 -6 32 -40 35
-37 3 -38 3 -38 -32z"/>
<path d="M8640 3595 c0 -34 1 -35 40 -35 39 0 40 1 40 35 0 34 -1 35 -40 35
-39 0 -40 -1 -40 -35z"/>
<path d="M9040 3595 c0 -34 1 -35 40 -35 39 0 40 1 40 35 0 34 -1 35 -40 35
-39 0 -40 -1 -40 -35z"/>
</g>
</svg>
