<svg version="1.1" id="Plan_1" xmlns="http://www.w3.org/2000/svg" xmlns:xlink="http://www.w3.org/1999/xlink" x="0px" y="0px"
	 viewBox="0 0 198.8 23.5" style="enable-background:new 0 0 198.8 23.5;" xml:space="preserve">
<style type="text/css">
	.st0{fill-rule:evenodd;clip-rule:evenodd;fill:#E64155;}
</style>
<path class="st0" d="M174.6,7c-0.7-0.9-1.2-1.8-1.5-2.8c0.1,0.5,0.1,0.9,0.1,1.4c0.1,0.5,0.1,1.2,0.1,2v15.8H170V0h3.2l11.5,15.3
	L195.2,0h3.6v23.5h-3.6V7.7c0-0.3,0.1-0.8,0.1-1.6c0.1-0.9,0.1-1.5,0.1-1.9c-0.3,0.6-0.5,1.1-0.8,1.5c-0.2,0.5-0.5,0.8-0.6,1l-9,13
	h-1l-9.3-12.7C174.7,7.1,174.7,7,174.6,7L174.6,7z M135.6,3.2L135.6,3.2v20.3h-3.9V3.2H121V0h25.4v3.2H135.6L135.6,3.2z M88.3,23.5
	L88.3,23.5V0h2.5l17.6,15.7c0.4,0.3,0.8,0.8,1.2,1.3c0.5,0.5,0.9,1.1,1.4,1.6c-0.1-0.8-0.2-1.6-0.3-2.4c-0.1-0.9-0.1-2-0.1-3.4V0
	h3.6v23.5h-2.2l-18-16.3C94,7.1,93.9,7,93.7,6.8c-0.9-0.8-1.6-1.6-2-2.3c0.1,0.7,0.1,1.4,0.2,2.3C92,7.6,92,8.6,92,9.7v13.8H88.3
	L88.3,23.5z M72.3,0L72.3,0h3.9v23.5h-3.9V0L72.3,0z M33.1,5.6L33.1,5.6c0-2.2,0.4-3.6,1.2-4.4C35.1,0.4,36.5,0,38.7,0h16.2
	c2.1,0,3.6,0.4,4.3,1.2C60,2,60.4,3.4,60.4,5.6V18c0,2.2-0.4,3.6-1.2,4.4c-0.7,0.7-2.2,1.1-4.3,1.1H38.7c-2.2,0-3.6-0.4-4.3-1.2
	c-0.8-0.8-1.2-2.2-1.2-4.3V5.6L33.1,5.6z M37.1,20.3L37.1,20.3h19.4v-17H37.1V20.3L37.1,20.3z M0,23.5L0,23.5V0h18.9
	c1.7,0,3,0.4,3.8,1.1c0.7,0.7,1.1,1.8,1.1,3.5v5.2c0,1.6-0.4,2.8-1.1,3.5c-0.8,0.7-2.1,1.1-3.8,1.1h-15v9.1H0L0,23.5z M17.4,3.1
	L17.4,3.1H3.9v8.2h13.4c1,0,1.6-0.2,2-0.5c0.3-0.4,0.5-1.1,0.5-1.9V5.5c0-0.9-0.2-1.5-0.5-1.9C19,3.2,18.4,3.1,17.4,3.1z"/>
</svg>
